<mxfile host="www.draw.io" modified="2020-02-18T17:47:11.841Z" agent="Mozilla/5.0 (Windows NT 10.0; Win64; x64) AppleWebKit/537.36 (KHTML, like Gecko) Chrome/80.0.3987.106 Safari/537.36" etag="v4EVwXNrWtWXnwEaKxB1" version="12.7.1" type="github">
  <diagram id="1-QwToqLwwmoLSdtNH_Y" name="Page-1">
    <mxGraphModel dx="2060" dy="647" grid="1" gridSize="10" guides="1" tooltips="1" connect="1" arrows="1" fold="1" page="1" pageScale="1" pageWidth="850" pageHeight="1100" math="0" shadow="0">
      <root>
        <mxCell id="0" />
        <mxCell id="1" parent="0" />
        <mxCell id="cZJW53DGWl8GTpxbofNE-68" value="Supplychain" style="swimlane;fontStyle=1;align=center;verticalAlign=top;childLayout=stackLayout;horizontal=1;startSize=26;horizontalStack=0;resizeParent=1;resizeParentMax=0;resizeLast=0;collapsible=1;marginBottom=0;" parent="1" vertex="1">
          <mxGeometry x="-135" y="172" width="480" height="490" as="geometry" />
        </mxCell>
        <mxCell id="cZJW53DGWl8GTpxbofNE-69" value="+ owner: address&#xa;+ upc: uint&#xa;+ sku: uint&#xa;+ items: mapping(uint-&gt;Item)&#xa;+ itemsHistory: mapping(uint-&gt;string[])&#xa;+ state: enum&#xa;+ Item: struct" style="text;strokeColor=none;fillColor=none;align=left;verticalAlign=top;spacingLeft=4;spacingRight=4;overflow=hidden;rotatable=0;points=[[0,0.5],[1,0.5]];portConstraint=eastwest;" parent="cZJW53DGWl8GTpxbofNE-68" vertex="1">
          <mxGeometry y="26" width="480" height="104" as="geometry" />
        </mxCell>
        <mxCell id="cZJW53DGWl8GTpxbofNE-70" value="" style="line;strokeWidth=1;fillColor=none;align=left;verticalAlign=middle;spacingTop=-1;spacingLeft=3;spacingRight=3;rotatable=0;labelPosition=right;points=[];portConstraint=eastwest;" parent="cZJW53DGWl8GTpxbofNE-68" vertex="1">
          <mxGeometry y="130" width="480" height="8" as="geometry" />
        </mxCell>
        <mxCell id="cZJW53DGWl8GTpxbofNE-71" value="+ kill(): void&#xa;+ harvestItem(uint,address,string,string,string,string,string): void&#xa;+ processItem(uint): void&#xa;+ packItem(uint): void&#xa;+ sellItem(uint, uint): void&#xa;+ buyItem(uint): void&#xa;+ buyItem(uint): void&#xa;+ shipItem(uint): void&#xa;+ receiveItem(uint): void&#xa;+ purchaseItem(uint): void&#xa;+ fetchItemBufferOne(uint): uint,uint,address,address,string,string,string,string&#xa;+ fetchItemBufferTwo(uint): uint,uint,uint,string, uint,uint,address,address,address&#xa;+ onlyOwner(): modifier&#xa;+ verifyCaller(address): modifier&#xa;+ paidenough(uint): modifier&#xa;+ checkValue(uint): modifier&#xa;+ harvested(uint): modifier&#xa;+ processed(uint): modifier&#xa;+ packed(uint): modifier&#xa;+ forSale(uint): modifier&#xa;+ sold(uint): modifier&#xa;+ shipped(uint): modifier&#xa;+ received(uint): modifier&#xa;+ purchased(uint): modifier&#xa;" style="text;strokeColor=none;fillColor=none;align=left;verticalAlign=top;spacingLeft=4;spacingRight=4;overflow=hidden;rotatable=0;points=[[0,0.5],[1,0.5]];portConstraint=eastwest;" parent="cZJW53DGWl8GTpxbofNE-68" vertex="1">
          <mxGeometry y="138" width="480" height="352" as="geometry" />
        </mxCell>
        <mxCell id="cZJW53DGWl8GTpxbofNE-76" value="FarmerRole" style="swimlane;fontStyle=1;align=center;verticalAlign=top;childLayout=stackLayout;horizontal=1;startSize=26;horizontalStack=0;resizeParent=1;resizeParentMax=0;resizeLast=0;collapsible=1;marginBottom=0;" parent="1" vertex="1">
          <mxGeometry x="-525" y="80" width="240" height="218" as="geometry" />
        </mxCell>
        <mxCell id="rFHjo2UkezKKDb8SPABH-2" value="+ farm: struct" style="text;strokeColor=none;fillColor=none;align=left;verticalAlign=top;spacingLeft=4;spacingRight=4;overflow=hidden;rotatable=0;points=[[0,0.5],[1,0.5]];portConstraint=eastwest;" parent="cZJW53DGWl8GTpxbofNE-76" vertex="1">
          <mxGeometry y="26" width="240" height="44" as="geometry" />
        </mxCell>
        <mxCell id="rFHjo2UkezKKDb8SPABH-1" value="+ farm: struct" style="text;strokeColor=none;fillColor=none;align=left;verticalAlign=top;spacingLeft=4;spacingRight=4;overflow=hidden;rotatable=0;points=[[0,0.5],[1,0.5]];portConstraint=eastwest;" parent="cZJW53DGWl8GTpxbofNE-76" vertex="1">
          <mxGeometry y="70" width="240" height="44" as="geometry" />
        </mxCell>
        <mxCell id="cZJW53DGWl8GTpxbofNE-77" value="+ farm: struct" style="text;strokeColor=none;fillColor=none;align=left;verticalAlign=top;spacingLeft=4;spacingRight=4;overflow=hidden;rotatable=0;points=[[0,0.5],[1,0.5]];portConstraint=eastwest;" parent="cZJW53DGWl8GTpxbofNE-76" vertex="1">
          <mxGeometry y="114" width="240" height="44" as="geometry" />
        </mxCell>
        <mxCell id="cZJW53DGWl8GTpxbofNE-78" value="" style="line;strokeWidth=1;fillColor=none;align=left;verticalAlign=middle;spacingTop=-1;spacingLeft=3;spacingRight=3;rotatable=0;labelPosition=right;points=[];portConstraint=eastwest;" parent="cZJW53DGWl8GTpxbofNE-76" vertex="1">
          <mxGeometry y="158" width="240" height="8" as="geometry" />
        </mxCell>
        <mxCell id="cZJW53DGWl8GTpxbofNE-79" value="+ method(type): type" style="text;strokeColor=none;fillColor=none;align=left;verticalAlign=top;spacingLeft=4;spacingRight=4;overflow=hidden;rotatable=0;points=[[0,0.5],[1,0.5]];portConstraint=eastwest;" parent="cZJW53DGWl8GTpxbofNE-76" vertex="1">
          <mxGeometry y="166" width="240" height="52" as="geometry" />
        </mxCell>
        <mxCell id="cZJW53DGWl8GTpxbofNE-80" value="DistributorRole" style="swimlane;fontStyle=1;align=center;verticalAlign=top;childLayout=stackLayout;horizontal=1;startSize=26;horizontalStack=0;resizeParent=1;resizeParentMax=0;resizeLast=0;collapsible=1;marginBottom=0;" parent="1" vertex="1">
          <mxGeometry x="-515" y="342" width="160" height="86" as="geometry" />
        </mxCell>
        <mxCell id="cZJW53DGWl8GTpxbofNE-81" value="+ field: type" style="text;strokeColor=none;fillColor=none;align=left;verticalAlign=top;spacingLeft=4;spacingRight=4;overflow=hidden;rotatable=0;points=[[0,0.5],[1,0.5]];portConstraint=eastwest;" parent="cZJW53DGWl8GTpxbofNE-80" vertex="1">
          <mxGeometry y="26" width="160" height="26" as="geometry" />
        </mxCell>
        <mxCell id="cZJW53DGWl8GTpxbofNE-82" value="" style="line;strokeWidth=1;fillColor=none;align=left;verticalAlign=middle;spacingTop=-1;spacingLeft=3;spacingRight=3;rotatable=0;labelPosition=right;points=[];portConstraint=eastwest;" parent="cZJW53DGWl8GTpxbofNE-80" vertex="1">
          <mxGeometry y="52" width="160" height="8" as="geometry" />
        </mxCell>
        <mxCell id="cZJW53DGWl8GTpxbofNE-83" value="+ method(type): type" style="text;strokeColor=none;fillColor=none;align=left;verticalAlign=top;spacingLeft=4;spacingRight=4;overflow=hidden;rotatable=0;points=[[0,0.5],[1,0.5]];portConstraint=eastwest;" parent="cZJW53DGWl8GTpxbofNE-80" vertex="1">
          <mxGeometry y="60" width="160" height="26" as="geometry" />
        </mxCell>
        <mxCell id="cZJW53DGWl8GTpxbofNE-84" value="RetailerRole" style="swimlane;fontStyle=1;align=center;verticalAlign=top;childLayout=stackLayout;horizontal=1;startSize=26;horizontalStack=0;resizeParent=1;resizeParentMax=0;resizeLast=0;collapsible=1;marginBottom=0;" parent="1" vertex="1">
          <mxGeometry x="-515" y="492" width="160" height="86" as="geometry" />
        </mxCell>
        <mxCell id="cZJW53DGWl8GTpxbofNE-85" value="+ field: type" style="text;strokeColor=none;fillColor=none;align=left;verticalAlign=top;spacingLeft=4;spacingRight=4;overflow=hidden;rotatable=0;points=[[0,0.5],[1,0.5]];portConstraint=eastwest;" parent="cZJW53DGWl8GTpxbofNE-84" vertex="1">
          <mxGeometry y="26" width="160" height="26" as="geometry" />
        </mxCell>
        <mxCell id="cZJW53DGWl8GTpxbofNE-86" value="" style="line;strokeWidth=1;fillColor=none;align=left;verticalAlign=middle;spacingTop=-1;spacingLeft=3;spacingRight=3;rotatable=0;labelPosition=right;points=[];portConstraint=eastwest;" parent="cZJW53DGWl8GTpxbofNE-84" vertex="1">
          <mxGeometry y="52" width="160" height="8" as="geometry" />
        </mxCell>
        <mxCell id="cZJW53DGWl8GTpxbofNE-87" value="+ method(type): type" style="text;strokeColor=none;fillColor=none;align=left;verticalAlign=top;spacingLeft=4;spacingRight=4;overflow=hidden;rotatable=0;points=[[0,0.5],[1,0.5]];portConstraint=eastwest;" parent="cZJW53DGWl8GTpxbofNE-84" vertex="1">
          <mxGeometry y="60" width="160" height="26" as="geometry" />
        </mxCell>
        <mxCell id="cZJW53DGWl8GTpxbofNE-88" value="ConsumerRole" style="swimlane;fontStyle=1;align=center;verticalAlign=top;childLayout=stackLayout;horizontal=1;startSize=26;horizontalStack=0;resizeParent=1;resizeParentMax=0;resizeLast=0;collapsible=1;marginBottom=0;" parent="1" vertex="1">
          <mxGeometry x="-515" y="622" width="160" height="86" as="geometry" />
        </mxCell>
        <mxCell id="cZJW53DGWl8GTpxbofNE-89" value="+ field: type" style="text;strokeColor=none;fillColor=none;align=left;verticalAlign=top;spacingLeft=4;spacingRight=4;overflow=hidden;rotatable=0;points=[[0,0.5],[1,0.5]];portConstraint=eastwest;" parent="cZJW53DGWl8GTpxbofNE-88" vertex="1">
          <mxGeometry y="26" width="160" height="26" as="geometry" />
        </mxCell>
        <mxCell id="cZJW53DGWl8GTpxbofNE-90" value="" style="line;strokeWidth=1;fillColor=none;align=left;verticalAlign=middle;spacingTop=-1;spacingLeft=3;spacingRight=3;rotatable=0;labelPosition=right;points=[];portConstraint=eastwest;" parent="cZJW53DGWl8GTpxbofNE-88" vertex="1">
          <mxGeometry y="52" width="160" height="8" as="geometry" />
        </mxCell>
        <mxCell id="cZJW53DGWl8GTpxbofNE-91" value="+ method(type): type" style="text;strokeColor=none;fillColor=none;align=left;verticalAlign=top;spacingLeft=4;spacingRight=4;overflow=hidden;rotatable=0;points=[[0,0.5],[1,0.5]];portConstraint=eastwest;" parent="cZJW53DGWl8GTpxbofNE-88" vertex="1">
          <mxGeometry y="60" width="160" height="26" as="geometry" />
        </mxCell>
        <mxCell id="cZJW53DGWl8GTpxbofNE-92" value="Role" style="swimlane;fontStyle=1;align=center;verticalAlign=top;childLayout=stackLayout;horizontal=1;startSize=26;horizontalStack=0;resizeParent=1;resizeParentMax=0;resizeLast=0;collapsible=1;marginBottom=0;" parent="1" vertex="1">
          <mxGeometry x="-800" y="252" width="215" height="200" as="geometry" />
        </mxCell>
        <mxCell id="cZJW53DGWl8GTpxbofNE-93" value="+ account: address&#xa;+ role: enum" style="text;strokeColor=none;fillColor=none;align=left;verticalAlign=top;spacingLeft=4;spacingRight=4;overflow=hidden;rotatable=0;points=[[0,0.5],[1,0.5]];portConstraint=eastwest;" parent="cZJW53DGWl8GTpxbofNE-92" vertex="1">
          <mxGeometry y="26" width="215" height="82" as="geometry" />
        </mxCell>
        <mxCell id="cZJW53DGWl8GTpxbofNE-94" value="" style="line;strokeWidth=1;fillColor=none;align=left;verticalAlign=middle;spacingTop=-1;spacingLeft=3;spacingRight=3;rotatable=0;labelPosition=right;points=[];portConstraint=eastwest;" parent="cZJW53DGWl8GTpxbofNE-92" vertex="1">
          <mxGeometry y="108" width="215" height="8" as="geometry" />
        </mxCell>
        <mxCell id="cZJW53DGWl8GTpxbofNE-95" value="+ add(address, role): address, role&#xa;+ remove(address,role): address, role&#xa;+ is(address, role): bool&#xa;+ roleOf(address): role" style="text;strokeColor=none;fillColor=none;align=left;verticalAlign=top;spacingLeft=4;spacingRight=4;overflow=hidden;rotatable=0;points=[[0,0.5],[1,0.5]];portConstraint=eastwest;" parent="cZJW53DGWl8GTpxbofNE-92" vertex="1">
          <mxGeometry y="116" width="215" height="84" as="geometry" />
        </mxCell>
        <mxCell id="rFHjo2UkezKKDb8SPABH-3" style="edgeStyle=orthogonalEdgeStyle;rounded=0;orthogonalLoop=1;jettySize=auto;html=1;entryX=0.5;entryY=0;entryDx=0;entryDy=0;" parent="1" source="rFHjo2UkezKKDb8SPABH-2" target="cZJW53DGWl8GTpxbofNE-92" edge="1">
          <mxGeometry relative="1" as="geometry" />
        </mxCell>
        <mxCell id="rFHjo2UkezKKDb8SPABH-4" style="edgeStyle=orthogonalEdgeStyle;rounded=0;orthogonalLoop=1;jettySize=auto;html=1;exitX=0;exitY=0.5;exitDx=0;exitDy=0;entryX=1.007;entryY=0.118;entryDx=0;entryDy=0;entryPerimeter=0;" parent="1" source="cZJW53DGWl8GTpxbofNE-81" target="cZJW53DGWl8GTpxbofNE-95" edge="1">
          <mxGeometry relative="1" as="geometry" />
        </mxCell>
        <mxCell id="rFHjo2UkezKKDb8SPABH-5" style="edgeStyle=orthogonalEdgeStyle;rounded=0;orthogonalLoop=1;jettySize=auto;html=1;exitX=0;exitY=0.5;exitDx=0;exitDy=0;entryX=0.831;entryY=1.057;entryDx=0;entryDy=0;entryPerimeter=0;" parent="1" source="cZJW53DGWl8GTpxbofNE-85" target="cZJW53DGWl8GTpxbofNE-95" edge="1">
          <mxGeometry relative="1" as="geometry">
            <Array as="points">
              <mxPoint x="-621" y="531" />
            </Array>
          </mxGeometry>
        </mxCell>
        <mxCell id="rFHjo2UkezKKDb8SPABH-6" style="edgeStyle=orthogonalEdgeStyle;rounded=0;orthogonalLoop=1;jettySize=auto;html=1;exitX=0;exitY=0.5;exitDx=0;exitDy=0;entryX=0.521;entryY=1.044;entryDx=0;entryDy=0;entryPerimeter=0;" parent="1" source="cZJW53DGWl8GTpxbofNE-89" target="cZJW53DGWl8GTpxbofNE-95" edge="1">
          <mxGeometry relative="1" as="geometry">
            <Array as="points">
              <mxPoint x="-688" y="661" />
            </Array>
          </mxGeometry>
        </mxCell>
        <mxCell id="rFHjo2UkezKKDb8SPABH-7" style="edgeStyle=orthogonalEdgeStyle;rounded=0;orthogonalLoop=1;jettySize=auto;html=1;exitX=0;exitY=0.5;exitDx=0;exitDy=0;entryX=1;entryY=0.5;entryDx=0;entryDy=0;" parent="1" source="cZJW53DGWl8GTpxbofNE-69" target="rFHjo2UkezKKDb8SPABH-1" edge="1">
          <mxGeometry relative="1" as="geometry" />
        </mxCell>
        <mxCell id="rFHjo2UkezKKDb8SPABH-8" style="edgeStyle=orthogonalEdgeStyle;rounded=0;orthogonalLoop=1;jettySize=auto;html=1;exitX=0;exitY=0.5;exitDx=0;exitDy=0;entryX=1;entryY=0.5;entryDx=0;entryDy=0;" parent="1" source="cZJW53DGWl8GTpxbofNE-71" target="cZJW53DGWl8GTpxbofNE-81" edge="1">
          <mxGeometry relative="1" as="geometry" />
        </mxCell>
        <mxCell id="2AW7A8WxjG5eBdVN5fPx-1" style="edgeStyle=orthogonalEdgeStyle;rounded=0;orthogonalLoop=1;jettySize=auto;html=1;exitX=0.002;exitY=0.629;exitDx=0;exitDy=0;entryX=1;entryY=0.5;entryDx=0;entryDy=0;exitPerimeter=0;" edge="1" parent="1" source="cZJW53DGWl8GTpxbofNE-71" target="cZJW53DGWl8GTpxbofNE-85">
          <mxGeometry relative="1" as="geometry">
            <mxPoint x="-125" y="496" as="sourcePoint" />
            <mxPoint x="-345" y="391" as="targetPoint" />
          </mxGeometry>
        </mxCell>
        <mxCell id="2AW7A8WxjG5eBdVN5fPx-2" style="edgeStyle=orthogonalEdgeStyle;rounded=0;orthogonalLoop=1;jettySize=auto;html=1;exitX=-0.003;exitY=0.902;exitDx=0;exitDy=0;entryX=1;entryY=0.5;entryDx=0;entryDy=0;exitPerimeter=0;" edge="1" parent="1" source="cZJW53DGWl8GTpxbofNE-71" target="cZJW53DGWl8GTpxbofNE-89">
          <mxGeometry relative="1" as="geometry">
            <mxPoint x="-115" y="506" as="sourcePoint" />
            <mxPoint x="-335" y="401" as="targetPoint" />
          </mxGeometry>
        </mxCell>
      </root>
    </mxGraphModel>
  </diagram>
</mxfile>
